<?xml version="1.0" encoding="utf-8"?>
<!-- Generator: Adobe Illustrator 17.1.0, SVG Export Plug-In . SVG Version: 6.00 Build 0)  -->
<!DOCTYPE svg PUBLIC "-//W3C//DTD SVG 1.1//EN" "http://www.w3.org/Graphics/SVG/1.1/DTD/svg11.dtd">
<svg version="1.1" xmlns="http://www.w3.org/2000/svg" xmlns:xlink="http://www.w3.org/1999/xlink" x="0px" y="0px" width="50px"
	 height="50px" viewBox="0 0 50 50" enable-background="new 0 0 50 50" xml:space="preserve">
<g id="Layer_1">
</g>
<g id="Glyph">
	<g>
		<path d="M46.7,29.9C46.7,29.9,46.7,29.9,46.7,29.9c0.7-1.5,1.3-5.8,1.3-5.8L32.7,9.9v-9c0,0-28.8-6.7-30.6,23.1
			c-0.2,4,0.5,14,11.9,22.4l0.6-0.9C7.9,40.7,3.1,33.7,3.1,24C3.2,15.2,8.2-1.9,31.6,1.7v8.2l-5,4.8l-5-3.4c0,0-3.1,2.4-2.4,4.7
			c0.4,1.4,1.9,2.4,4.5,3l4.6,14.3c0.2,0.6,3.7,14,19,16.5l0.2-1c-6.7-1.1-14.1-4.7-18-15.1h13.8C43.6,33.7,45.3,33.5,46.7,29.9z
			 M45.8,29.2c-0.7-0.5-2.5-2.4-4-4.4h5C46.5,26.7,46.2,28.1,45.8,29.2z M29.2,32.6l-4.7-14.5c0,0-3.9-0.6-4.3-2.4
			c-0.3-1.1,0.8-2.5,1.5-3.1l5,3.4l5.5-5.2L46,23.7h-6.4c0,0,3.6,5.1,5.8,6.4c-1,2.2-2,2.4-2.1,2.4H29.2z"/>
	</g>
</g>
</svg>
